<svg width="16" height="16" viewBox="0 0 16 16" fill="none" xmlns="http://www.w3.org/2000/svg">
<path d="M2.64006 4.762C0.939062 6.28 -0.000937462 8 -0.000937462 8C-0.000937462 8 2.99906 13.5 7.99906 13.5C8.95947 13.4967 9.90901 13.2966 10.7891 12.912L10.0191 12.141C9.37163 12.3768 8.68811 12.4983 7.99906 12.5C5.87906 12.5 4.12006 11.332 2.83106 10.043C2.21071 9.41931 1.65458 8.73487 1.17106 8C1.22906 7.913 1.29306 7.817 1.36606 7.712C1.70106 7.232 2.19606 6.592 2.83106 5.957C2.99606 5.792 3.16806 5.629 3.34806 5.471L2.64006 4.762Z" fill="white"/>
<path d="M4.70265 6.82389C4.47949 7.44805 4.43816 8.12274 4.58348 8.76947C4.72879 9.4162 5.05476 10.0084 5.52346 10.4771C5.99217 10.9458 6.58434 11.2717 7.23107 11.4171C7.87779 11.5624 8.55249 11.521 9.17665 11.2979L8.35365 10.4749C7.96934 10.5299 7.5775 10.4946 7.20917 10.3719C6.84085 10.2492 6.50617 10.0424 6.23166 9.76788C5.95714 9.49336 5.75033 9.15868 5.62761 8.79036C5.50489 8.42204 5.46964 8.0302 5.52465 7.64589L4.70265 6.82389ZM7.64565 5.52489L6.82365 4.70289C7.4478 4.47974 8.1225 4.43841 8.76923 4.58372C9.41595 4.72903 10.0081 5.055 10.4768 5.52371C10.9455 5.99241 11.2715 6.58458 11.4168 7.23131C11.5621 7.87804 11.5208 8.55273 11.2976 9.17689L10.4746 8.35389C10.5297 7.96958 10.4944 7.57774 10.3717 7.20942C10.249 6.8411 10.0422 6.50642 9.76763 6.2319C9.49312 5.95738 9.15844 5.75057 8.79012 5.62785C8.4218 5.50513 8.02996 5.46988 7.64565 5.52489Z" fill="white"/>
<path d="M12.65 10.53C12.83 10.37 13.003 10.208 13.168 10.043C13.7884 9.41931 14.3445 8.73488 14.828 8L14.633 7.712C14.298 7.232 13.803 6.592 13.168 5.957C11.879 4.668 10.119 3.5 8 3.5C7.284 3.5 6.61 3.633 5.98 3.86L5.21 3.088C6.09006 2.70346 7.0396 2.50334 8 2.5C13 2.5 16 8 16 8C16 8 15.061 9.721 13.359 11.238L12.651 10.529L12.65 10.53ZM2.354 1.646L14.354 13.646L13.646 14.354L1.646 2.354L2.354 1.646Z" fill="white"/>
</svg>
