<svg width="32" height="32" viewBox="0 0 32 32" fill="none" xmlns="http://www.w3.org/2000/svg">
<g clip-path="url(#clip0_2173_26015)">
<path d="M14.666 31.454V26.654C7.98602 26.3073 2.66602 20.7607 2.66602 14.0007C2.66602 7.01398 8.34602 1.33398 15.3327 1.33398C22.3193 1.33398 27.9993 7.01398 27.9993 14.0007C27.9993 20.6007 23.4127 27.2407 16.5727 30.534L14.666 31.454ZM15.3327 4.00065C9.81268 4.00065 5.33268 8.48065 5.33268 14.0007C5.33268 19.5207 9.81268 24.0007 15.3327 24.0007H17.3327V27.0673C22.186 24.0007 25.3327 18.9607 25.3327 14.0007C25.3327 8.48065 20.8527 4.00065 15.3327 4.00065ZM13.9993 19.334H16.666V22.0007H13.9993V19.334ZM16.666 17.334H13.9993C13.9993 13.0007 17.9993 13.334 17.9993 10.6673C17.9993 9.20065 16.7993 8.00065 15.3327 8.00065C13.866 8.00065 12.666 9.20065 12.666 10.6673H9.99935C9.99935 7.72065 12.386 5.33398 15.3327 5.33398C18.2793 5.33398 20.666 7.72065 20.666 10.6673C20.666 14.0007 16.666 14.334 16.666 17.334Z" fill="white"/>
</g>
<defs>
<clipPath id="clip0_2173_26015">
<rect width="32" height="32" fill="white"/>
</clipPath>
</defs>
</svg>
