<svg width="32" height="32" viewBox="0 0 32 32" fill="none" xmlns="http://www.w3.org/2000/svg">
<g clip-path="url(#clip0_1965_6944)">
<path d="M2 5.65527C3.77 4.91527 6.308 4.11727 8.776 3.86927C11.436 3.60127 13.692 3.99527 15 5.37327V24.8653C13.13 23.8053 10.76 23.6593 8.574 23.8793C6.214 24.1193 3.834 24.8013 2 25.5013V5.65527ZM17 5.37327C18.308 3.99527 20.564 3.60127 23.224 3.86927C25.692 4.11727 28.23 4.91527 30 5.65527V25.5013C28.164 24.8013 25.786 24.1173 23.426 23.8813C21.238 23.6593 18.87 23.8033 17 24.8653V5.37327ZM16 3.56527C14.03 1.87127 11.174 1.61927 8.574 1.87927C5.546 2.18527 2.49 3.22327 0.586 4.08927C0.411298 4.16873 0.263151 4.29678 0.159242 4.45814C0.0553334 4.6195 5.31428e-05 4.80735 0 4.99927L0 26.9993C4.6324e-05 27.1666 0.0420743 27.3312 0.122234 27.4781C0.202394 27.625 0.318123 27.7494 0.458822 27.8399C0.59952 27.9305 0.760689 27.9843 0.927567 27.9964C1.09444 28.0085 1.2617 27.9785 1.414 27.9093C3.178 27.1093 6.02 26.1473 8.774 25.8693C11.592 25.5853 13.954 26.0433 15.22 27.6233C15.3137 27.7401 15.4324 27.8343 15.5674 27.8991C15.7024 27.9639 15.8503 27.9975 16 27.9975C16.1497 27.9975 16.2976 27.9639 16.4326 27.8991C16.5676 27.8343 16.6863 27.7401 16.78 27.6233C18.046 26.0433 20.408 25.5853 23.224 25.8693C25.98 26.1473 28.824 27.1093 30.586 27.9093C30.7383 27.9785 30.9056 28.0085 31.0724 27.9964C31.2393 27.9843 31.4005 27.9305 31.5412 27.8399C31.6819 27.7494 31.7976 27.625 31.8778 27.4781C31.9579 27.3312 32 27.1666 32 26.9993V4.99927C31.9999 4.80735 31.9447 4.6195 31.8408 4.45814C31.7368 4.29678 31.5887 4.16873 31.414 4.08927C29.51 3.22327 26.454 2.18527 23.426 1.87927C20.826 1.61727 17.97 1.87127 16 3.56527Z" fill="white"/>
</g>
<defs>
<clipPath id="clip0_1965_6944">
<rect width="32" height="32" fill="white"/>
</clipPath>
</defs>
</svg>
