<svg width="32" height="32" viewBox="0 0 32 32" fill="none" xmlns="http://www.w3.org/2000/svg">
<path d="M12.656 4.90625L11.875 5.00025C11.875 5.00025 8.371 5.38325 5.812 7.43825H5.782L5.75 7.46825C5.176 7.99625 4.926 8.64525 4.531 9.59425C4.06538 10.736 3.669 11.9048 3.344 13.0942C2.602 15.7773 2 19.0273 2 22.0002V22.2502L2.125 22.5002C3.051 24.1252 4.695 25.1602 6.219 25.8752C7.742 26.5903 9.059 26.9692 9.969 27.0002L10.563 27.0312L10.875 26.5002L11.969 24.5623C13.129 24.8242 14.465 25.0002 16 25.0002C17.535 25.0002 18.871 24.8242 20.031 24.5623L21.125 26.5002L21.438 27.0312L22.031 27.0002C22.941 26.9692 24.258 26.5903 25.781 25.8752C27.305 25.1602 28.949 24.1252 29.875 22.5002L30 22.2502V22.0002C30 19.0273 29.398 15.7773 28.656 13.0942C28.331 11.9048 27.9346 10.736 27.469 9.59425C27.074 8.64425 26.824 7.99625 26.25 7.46925L26.219 7.43725H26.187C23.63 5.38325 20.125 5.00025 20.125 5.00025L19.344 4.90625L19.062 5.62525C19.062 5.62525 18.773 6.35525 18.594 7.18825C17.7343 7.06964 16.8678 7.00684 16 7.00025C15.465 7.00025 14.54 7.03525 13.406 7.18825C13.226 6.35525 12.937 5.62525 12.937 5.62525L12.656 4.90625ZM11.281 7.18825C11.324 7.32825 11.367 7.44925 11.406 7.56325C10.113 7.88325 8.734 8.37125 7.469 9.15625L8.531 10.8442C11.125 9.23425 14.851 9.00025 16 9.00025C17.148 9.00025 20.875 9.23425 23.469 10.8442L24.531 9.15625C23.266 8.37125 21.887 7.88325 20.594 7.56225C20.633 7.44925 20.676 7.32825 20.719 7.18725C21.652 7.37525 23.434 7.80525 24.906 8.96925C24.898 8.97325 25.281 9.55125 25.625 10.3752C25.977 11.2232 26.367 12.3523 26.719 13.6252C27.395 16.0662 27.926 19.0392 27.969 21.6562C27.339 22.6173 26.172 23.4842 24.937 24.0632C24.1625 24.4292 23.3431 24.6915 22.5 24.8433L22 24.0002C22.297 23.8902 22.59 23.7703 22.844 23.6562C24.383 22.9802 25.219 22.2502 25.219 22.2502L23.906 20.7502C23.906 20.7502 23.344 21.2663 22.031 21.8442C20.72 22.4222 18.715 23.0002 16 23.0002C13.285 23.0002 11.281 22.4222 9.969 21.8442C8.656 21.2663 8.094 20.7502 8.094 20.7502L6.781 22.2502C6.781 22.2502 7.617 22.9802 9.156 23.6562C9.41 23.7703 9.703 23.8913 10 24.0002L9.5 24.8442C8.65648 24.692 7.83673 24.429 7.062 24.0623C5.828 23.4843 4.66 22.6173 4.032 21.6562C4.074 19.0392 4.605 16.0662 5.282 13.6252C5.58115 12.5211 5.94614 11.4358 6.375 10.3752C6.719 9.55125 7.102 8.97325 7.094 8.96925C8.566 7.80525 10.348 7.37525 11.281 7.18825ZM12.5 14.0002C11.727 14.0002 11.043 14.4412 10.625 15.0002C10.207 15.5592 10 16.2463 10 17.0002C10 17.7542 10.207 18.4412 10.625 19.0002C11.043 19.5592 11.727 20.0002 12.5 20.0002C13.273 20.0002 13.957 19.5592 14.375 19.0002C14.793 18.4412 15 17.7542 15 17.0002C15 16.2463 14.793 15.5592 14.375 15.0002C13.957 14.4412 13.273 14.0002 12.5 14.0002ZM19.5 14.0002C18.727 14.0002 18.043 14.4412 17.625 15.0002C17.207 15.5592 17 16.2463 17 17.0002C17 17.7542 17.207 18.4412 17.625 19.0002C18.043 19.5592 18.727 20.0002 19.5 20.0002C20.273 20.0002 20.957 19.5592 21.375 19.0002C21.793 18.4412 22 17.7542 22 17.0002C22 16.2463 21.793 15.5592 21.375 15.0002C20.957 14.4412 20.273 14.0002 19.5 14.0002ZM12.5 16.0002C12.555 16.0002 12.625 16.0202 12.75 16.1882C12.875 16.3552 13 16.6482 13 17.0002C13 17.3523 12.875 17.6452 12.75 17.8132C12.625 17.9802 12.555 18.0002 12.5 18.0002C12.445 18.0002 12.375 17.9803 12.25 17.8123C12.0846 17.574 11.9973 17.2903 12 17.0002C12 16.6482 12.125 16.3553 12.25 16.1873C12.375 16.0203 12.445 16.0002 12.5 16.0002ZM19.5 16.0002C19.555 16.0002 19.625 16.0202 19.75 16.1882C19.875 16.3552 20 16.6482 20 17.0002C20 17.3523 19.875 17.6452 19.75 17.8132C19.625 17.9802 19.555 18.0002 19.5 18.0002C19.445 18.0002 19.375 17.9803 19.25 17.8123C19.0846 17.574 18.9973 17.2903 19 17.0002C19 16.6482 19.125 16.3553 19.25 16.1873C19.375 16.0203 19.445 16.0002 19.5 16.0002Z" fill="white"/>
</svg>
