<svg width="32" height="32" viewBox="0 0 32 32" fill="none" xmlns="http://www.w3.org/2000/svg">
<path d="M28 25.3327H12M4 6.66602H9.33333H4ZM28 6.66602H14.6667H28ZM4 15.9993H20H4ZM28 15.9993H25.3333H28ZM4 25.3327H6.66667H4Z" stroke="white" stroke-width="2.66667" stroke-linecap="round"/>
<path d="M12.0007 9.33333C13.4734 9.33333 14.6673 8.13943 14.6673 6.66667C14.6673 5.19391 13.4734 4 12.0007 4C10.5279 4 9.33398 5.19391 9.33398 6.66667C9.33398 8.13943 10.5279 9.33333 12.0007 9.33333Z" stroke="white" stroke-width="2.66667" stroke-linecap="round"/>
<path d="M22.6667 18.6673C24.1394 18.6673 25.3333 17.4734 25.3333 16.0007C25.3333 14.5279 24.1394 13.334 22.6667 13.334C21.1939 13.334 20 14.5279 20 16.0007C20 17.4734 21.1939 18.6673 22.6667 18.6673Z" stroke="white" stroke-width="2.66667" stroke-linecap="round"/>
<path d="M9.33268 27.9993C10.8054 27.9993 11.9993 26.8054 11.9993 25.3327C11.9993 23.8599 10.8054 22.666 9.33268 22.666C7.85992 22.666 6.66602 23.8599 6.66602 25.3327C6.66602 26.8054 7.85992 27.9993 9.33268 27.9993Z" stroke="white" stroke-width="2.66667" stroke-linecap="round"/>
</svg>
